<?xml version="1.0" encoding="utf-8"?>
<!-- Generator: Adobe Illustrator 16.2.1, SVG Export Plug-In . SVG Version: 6.00 Build 0)  -->
<!DOCTYPE svg PUBLIC "-//W3C//DTD SVG 1.1//EN" "http://www.w3.org/Graphics/SVG/1.1/DTD/svg11.dtd" [
	<!ENTITY ns_extend "http://ns.adobe.com/Extensibility/1.0/">
	<!ENTITY ns_ai "http://ns.adobe.com/AdobeIllustrator/10.0/">
	<!ENTITY ns_graphs "http://ns.adobe.com/Graphs/1.0/">
	<!ENTITY ns_vars "http://ns.adobe.com/Variables/1.0/">
	<!ENTITY ns_imrep "http://ns.adobe.com/ImageReplacement/1.0/">
	<!ENTITY ns_sfw "http://ns.adobe.com/SaveForWeb/1.0/">
	<!ENTITY ns_custom "http://ns.adobe.com/GenericCustomNamespace/1.0/">
	<!ENTITY ns_adobe_xpath "http://ns.adobe.com/XPath/1.0/">
]>
<svg version="1.1" id="Layer_1" xmlns:x="&ns_extend;" xmlns:i="&ns_ai;" xmlns:graph="&ns_graphs;"
	 xmlns="http://www.w3.org/2000/svg" xmlns:xlink="http://www.w3.org/1999/xlink" x="0px" y="0px" width="100%"
	 height="100%" viewBox="0 0 222.632 66.75" enable-background="new 0 0 222.632 66.75" xml:space="preserve">
<metadata>
	<sfw  xmlns="&ns_sfw;">
		<slices></slices>
		<sliceSourceBounds  height="66.75" width="222.632" y="-163.541" x="31.641" bottomLeftOrigin="true"></sliceSourceBounds>
	</sfw>
</metadata>
<g>
	<g>
		<path fill="#6A5E59" d="M87.722,31.65l-2.137-6.52c-0.246-0.816-0.508-1.797-0.508-1.816h-0.039c0,0.02-0.076,1.02-0.17,1.855
			l-0.814,6.48h-2.398l1.736-12.59h2.59l2.533,7.77c0.324,0.926,0.625,2.098,0.643,2.176h0.037c0.021-0.078,0.344-1.25,0.664-2.176
			l2.609-7.77h2.57l1.738,12.59h-2.721l-0.814-6.504c-0.111-0.887-0.207-1.797-0.207-1.832h-0.039
			c-0.018,0.059-0.242,0.945-0.51,1.793l-2.135,6.543H87.722z"/>
		<path fill="#6A5E59" d="M100.195,21.256c-0.889,0-1.531-0.703-1.531-1.516c0-0.793,0.643-1.477,1.531-1.477
			c0.891,0,1.551,0.684,1.551,1.477C101.746,20.553,101.085,21.256,100.195,21.256z M98.929,31.65v-9.207h2.533v9.207H98.929z"/>
		<path fill="#6A5E59" d="M107.392,22.217c1.135,0,1.795,0.398,2.135,0.641v-4.762h2.516v10.926c0,1.195,0.152,2.121,0.266,2.629
			h-2.479c-0.076-0.223-0.17-0.715-0.188-1c-0.568,0.68-1.361,1.246-2.59,1.246c-2.309,0-3.783-1.738-3.783-4.82
			C103.269,24.127,105.027,22.217,107.392,22.217z M107.808,29.873c0.908,0,1.512-0.641,1.719-0.926v-4.156
			c-0.32-0.285-0.793-0.605-1.605-0.605c-1.285,0-1.984,1.078-1.984,2.891C105.937,28.834,106.523,29.873,107.808,29.873z"/>
		<path fill="#6A5E59" d="M113.451,24.314v-1.871h1.475v-2.664h2.496v2.664h2.152v1.871h-2.152v4.199
			c0,0.906,0.225,1.305,0.926,1.305c0.547,0,1.02-0.227,1.209-0.34l0.586,1.871c-0.377,0.207-1.154,0.527-2.307,0.527
			c-2.172,0-2.91-1.113-2.91-2.871v-4.691H113.451z"/>
		<path fill="#6A5E59" d="M127.714,21.99v9.66h-3.609v-9.66h-3.383v-2.93h10.377v2.93H127.714z"/>
		<path fill="#6A5E59" d="M136.234,29.459c1.246,0,1.814-0.281,2.307-0.492l1.002,2.043c-0.719,0.379-1.609,0.867-3.668,0.867
			c-3.27,0-5.238-1.812-5.238-4.914s2.25-4.859,4.916-4.859c3.213,0,4.652,2.098,4.312,5.957h-5.578
			C134.474,28.986,135.097,29.459,136.234,29.459z M136.63,25.865c-0.018-0.852-0.303-1.457-1.115-1.457
			c-0.773,0-1.191,0.457-1.344,1.457H136.63z"/>
		<path fill="#6A5E59" d="M141.505,31.65V18.041h3.4V31.65H141.505z"/>
		<path fill="#6A5E59" d="M151.996,29.459c1.246,0,1.814-0.281,2.307-0.492l1.002,2.043c-0.719,0.379-1.609,0.867-3.668,0.867
			c-3.27,0-5.238-1.812-5.238-4.914s2.25-4.859,4.916-4.859c3.213,0,4.652,2.098,4.312,5.957h-5.578
			C150.236,28.986,150.859,29.459,151.996,29.459z M152.392,25.865c-0.018-0.852-0.303-1.457-1.115-1.457
			c-0.773,0-1.191,0.457-1.344,1.457H152.392z"/>
		<path fill="#6A5E59" d="M168.552,22.104c2.021,0,2.684,1.324,2.684,3.098v6.449h-3.4v-5.727c0-0.754-0.191-1.039-0.777-1.039
			c-0.531,0-0.871,0.379-1.172,0.754v6.012h-3.404v-5.727c0-0.754-0.264-1.039-0.773-1.039c-0.645,0-0.984,0.492-1.172,0.715v6.051
			h-3.404v-9.316h3.328v1.039c0.51-0.59,1.305-1.27,2.742-1.27c1.283,0,2.021,0.531,2.383,1.402
			C166.417,22.557,167.228,22.104,168.552,22.104z"/>
		<path fill="#6A5E59" d="M178.199,31.65c-0.094-0.223-0.168-0.621-0.189-0.906c-0.396,0.492-1.209,1.133-2.475,1.133
			c-1.605,0-2.914-0.926-2.914-2.723c0-2.383,2.348-3.363,4.955-3.363h0.264v-0.285c0-0.527-0.246-0.812-1.248-0.812
			c-1.113,0-1.982,0.57-2.322,0.793l-1.363-2.004c0.625-0.547,2.023-1.379,4.121-1.379c2.951,0,4.199,1.004,4.199,3.723v2.594
			c0,1.492,0.148,2.531,0.301,3.23H178.199z M177.839,27.756h-0.264c-1.078,0-1.795,0.344-1.795,1.078
			c0,0.453,0.34,0.719,0.926,0.719s0.906-0.246,1.133-0.438V27.756z"/>
		<path fill="#6A5E59" d="M189.423,25.279c-0.209-0.133-0.527-0.266-1.113-0.266c-0.928,0-1.514,0.551-1.834,1.043v5.594h-3.404
			v-9.316h3.404v1.109c0.434-0.715,1.172-1.34,2.268-1.34c0.775,0,1.209,0.152,1.475,0.301L189.423,25.279z"/>
		<path fill="#6A5E59" d="M194.521,31.65h-3.404V18.041h3.404V25.6l2.4-3.266h3.629l-3.137,4.195l3.137,5.121h-3.875l-2.154-3.801
			V31.65z"/>
		<path fill="#6A5E59" d="M90.917,47.479l-4.898-6.996c-0.717-0.984-1.188-1.852-1.209-1.891h-0.037c0,0.039,0.074,0.871,0.074,1.68
			v7.207h-2.418V34.885h2.686l4.535,6.527c0.756,1.074,1.307,2.074,1.324,2.113h0.037c0-0.055-0.074-1.004-0.074-1.984v-6.656h2.418
			v12.594H90.917z"/>
		<path fill="#6A5E59" d="M105.236,38.045c2.873,0,4.254,2.02,3.971,5.406h-5.859c0.131,1.414,0.848,2.383,2.381,2.383
			c1.248,0,1.945-0.414,2.381-0.645l0.812,1.625c-0.604,0.34-1.551,0.887-3.422,0.887c-1.664,0-2.912-0.602-3.723-1.602
			c-0.68,0.773-1.852,1.602-3.479,1.602c-1.57,0-2.779-0.941-2.779-2.586c0-2.402,2.475-3.273,4.914-3.273h0.359v-0.527
			c0-0.793-0.359-1.285-1.531-1.285c-1.191,0-2.004,0.621-2.346,0.867l-1.096-1.527c0.547-0.492,1.758-1.324,3.723-1.324
			c1.346,0,2.289,0.301,2.875,1C103.195,38.4,104.158,38.045,105.236,38.045z M100.433,43.393c-1.477,0-2.496,0.438-2.496,1.512
			c0,0.684,0.549,0.965,1.117,0.965c0.943,0,1.605-0.527,1.984-1.074c-0.172-0.438-0.266-0.891-0.32-1.402H100.433z M106.785,41.748
			c-0.037-1.039-0.453-1.891-1.586-1.891c-1.078,0-1.664,0.684-1.873,1.891H106.785z"/>
		<path fill="#6A5E59" d="M116.554,40.482c-0.152-0.094-0.438-0.211-0.965-0.211c-1.117,0-1.777,0.984-2.004,1.402v5.805h-2.516
			v-9.207h2.516v1.246c0.395-0.68,1.152-1.473,2.324-1.473c0.682,0,1.039,0.133,1.246,0.246L116.554,40.482z"/>
		<path fill="#6A5E59" d="M119.746,37.08c-0.887,0-1.527-0.699-1.527-1.512c0-0.793,0.641-1.477,1.527-1.477
			c0.891,0,1.555,0.684,1.555,1.477C121.3,36.381,120.636,37.08,119.746,37.08z M118.48,47.479v-9.207h2.535v9.207H118.48z"/>
		<path fill="#6A5E59" d="M129.027,47.479v-5.938c0-0.926-0.318-1.398-1.227-1.398c-0.984,0-1.703,0.906-1.891,1.152v6.184h-2.516
			v-9.207h2.457v1.152c0.492-0.547,1.402-1.379,2.934-1.379c2.004,0,2.76,1.285,2.76,2.984v6.449H129.027z"/>
		<path fill="#6A5E59" d="M142.335,38.271v1.645h-1.23c0.227,0.434,0.342,0.941,0.342,1.473c0,1.969-1.4,3.328-3.973,3.328
			c-0.396,0-0.756-0.039-1.096-0.094c-0.152,0.113-0.34,0.281-0.34,0.547c0,0.492,0.531,0.586,1.852,0.664
			c1.91,0.094,4.33,0.109,4.33,2.836c0,1.945-2.021,3.324-5.049,3.324c-2.533,0-4.045-0.793-4.045-2.457
			c0-1.02,0.623-1.758,1.549-2.25c-0.508-0.301-0.811-0.734-0.811-1.398c0-0.867,0.492-1.418,1.041-1.738
			c-1.041-0.586-1.648-1.551-1.648-2.762c0-1.984,1.533-3.344,4.086-3.344c0.623,0,1.172,0.074,1.645,0.227H142.335z
			 M135.529,49.064c0,0.738,0.51,1.25,1.795,1.25c1.531,0,2.4-0.586,2.4-1.363c0-0.98-0.869-0.945-2.213-1.039
			c-0.434-0.035-0.848-0.074-1.246-0.133C135.792,48.1,135.529,48.518,135.529,49.064z M139.027,41.389
			c0-1.078-0.625-1.703-1.664-1.703s-1.664,0.625-1.664,1.703c0,1.059,0.625,1.703,1.664,1.703S139.027,42.447,139.027,41.389z"/>
		<path fill="#6A5E59" d="M146.521,47.701c-1.643,0-2.705-0.488-3.27-0.867l0.85-1.758c0.359,0.246,1.248,0.758,2.27,0.758
			c0.965,0,1.512-0.285,1.512-0.832c0-0.625-1.021-0.793-2.324-1.418c-1.287-0.605-2.061-1.324-2.061-2.727
			c0-1.719,1.359-2.812,3.439-2.812c1.57,0,2.535,0.492,2.949,0.738L149,40.502c-0.359-0.23-1.078-0.586-1.969-0.586
			c-0.887,0-1.266,0.32-1.266,0.812c0,0.621,0.832,0.793,1.891,1.207c1.455,0.609,2.516,1.27,2.516,2.82
			C150.171,46.686,148.792,47.701,146.521,47.701z"/>
		<path fill="#6A5E59" d="M154.281,38.271v5.938c0,0.926,0.324,1.398,1.229,1.398c0.963,0,1.701-0.93,1.893-1.152v-6.184h2.514
			v6.562c0,1.172,0.131,2.094,0.246,2.645h-2.479c-0.074-0.246-0.17-0.852-0.188-1.23c-0.492,0.625-1.436,1.453-2.969,1.453
			c-2.023,0-2.758-1.301-2.758-2.984v-6.445H154.281z"/>
		<path fill="#6A5E59" d="M161.333,40.143v-1.871h1.475v-2.668h2.496v2.668h2.152v1.871h-2.152v4.199
			c0,0.906,0.225,1.301,0.926,1.301c0.547,0,1.02-0.223,1.209-0.34l0.586,1.875c-0.377,0.207-1.154,0.523-2.307,0.523
			c-2.172,0-2.91-1.109-2.91-2.867v-4.691H161.333z"/>
		<path fill="#6A5E59" d="M173.222,44.357l1.969-6.086h2.551l-3.402,9.207h-2.363l-3.422-9.207h2.723l1.91,6.086H173.222z"/>
		<path fill="#6A5E59" d="M180.423,37.08c-0.889,0-1.529-0.699-1.529-1.512c0-0.793,0.641-1.477,1.529-1.477
			c0.891,0,1.553,0.684,1.553,1.477C181.976,36.381,181.314,37.08,180.423,37.08z M179.158,47.479v-9.207h2.533v9.207H179.158z"/>
		<path fill="#6A5E59" d="M186.566,47.479h-2.512V33.865h2.512v8.109l3.045-3.703h2.74l-3.402,4.102l3.477,5.105h-2.908l-2.951-4.52
			V47.479z"/>
		<path fill="#6A5E59" d="M193.824,47.479V33.865h2.514v13.613H193.824z"/>
		<path fill="#6A5E59" d="M200.046,37.08c-0.887,0-1.529-0.699-1.529-1.512c0-0.793,0.643-1.477,1.529-1.477
			c0.891,0,1.553,0.684,1.553,1.477C201.599,36.381,200.937,37.08,200.046,37.08z M198.781,47.479v-9.207h2.535v9.207H198.781z"/>
		<path fill="#6A5E59" d="M209.324,47.479v-5.938c0-0.926-0.318-1.398-1.227-1.398c-0.984,0-1.703,0.906-1.891,1.152v6.184h-2.516
			v-9.207h2.457v1.152c0.492-0.547,1.402-1.379,2.934-1.379c2.004,0,2.76,1.285,2.76,2.984v6.449H209.324z"/>
		<path fill="#6A5E59" d="M222.632,38.271v1.645h-1.23c0.227,0.434,0.342,0.941,0.342,1.473c0,1.969-1.4,3.328-3.973,3.328
			c-0.396,0-0.756-0.039-1.096-0.094c-0.152,0.113-0.34,0.281-0.34,0.547c0,0.492,0.531,0.586,1.852,0.664
			c1.91,0.094,4.33,0.109,4.33,2.836c0,1.945-2.021,3.324-5.049,3.324c-2.533,0-4.045-0.793-4.045-2.457
			c0-1.02,0.623-1.758,1.549-2.25c-0.508-0.301-0.811-0.734-0.811-1.398c0-0.867,0.492-1.418,1.041-1.738
			c-1.041-0.586-1.648-1.551-1.648-2.762c0-1.984,1.533-3.344,4.086-3.344c0.623,0,1.172,0.074,1.645,0.227H222.632z
			 M215.826,49.064c0,0.738,0.51,1.25,1.795,1.25c1.531,0,2.4-0.586,2.4-1.363c0-0.98-0.869-0.945-2.213-1.039
			c-0.434-0.035-0.848-0.074-1.246-0.133C216.089,48.1,215.826,48.518,215.826,49.064z M219.324,41.389
			c0-1.078-0.625-1.703-1.664-1.703s-1.664,0.625-1.664,1.703c0,1.059,0.625,1.703,1.664,1.703S219.324,42.447,219.324,41.389z"/>
	</g>
	<path fill="#90CC00" d="M56.72,53.33c-2.936,0-5.053-0.75-6.27-2.195c-1.125-1.34-1.477-3.293-1.033-5.758l1.818-10.48h5.484
		l-1.846,10.547c-0.229,1.336-0.145,2.18,0.264,2.656c0.354,0.414,0.971,0.609,1.955,0.609c1.871,0,2.662-0.82,3.086-3.25
		l1.902-10.562h4.645c0.254-5.812-0.994-11.668-3.746-16.945h-1l-2.418,13.473H54.07l2.395-13.473h-4.684l0.803-4.641h7.459
		c-0.92-1.219-1.945-2.406-3.064-3.531C43.947-3.26,22.808-3.26,9.775,9.779c-13.033,13.031-13.033,34.164,0,47.203
		c13.033,13.023,34.172,13.023,47.203,0c1.359-1.367,2.566-2.812,3.639-4.316C59.521,53.1,58.23,53.33,56.72,53.33z M27.119,31.061
		l5.596-17.75h5.176l1.09,10.215c0.059,0.539,0.094,1.168,0.127,1.684c0.281-0.633,0.609-1.375,0.82-1.781l4.945-10.117h5.346
		l-0.002,0.277l-0.752,17.836h-5.5l0.018-0.301l0.539-7.367c0.006-0.328,0.037-0.66,0.061-0.965
		c-0.156,0.375-0.316,0.738-0.434,1.012l-3.527,7.621h-5.176l-0.029-0.246l-0.68-7.441c-0.025-0.297-0.064-0.617-0.076-0.926
		c-0.1,0.355-0.193,0.719-0.285,1.023l-2.246,7.59h-5.125L27.119,31.061z M44.683,53.014h-4.756l-4.143-7.984
		c-0.41-0.805-0.744-1.602-1-2.207c-0.049,0.52-0.137,1.168-0.248,1.809l-1.488,8.383H28.05l0.062-0.324l3.16-17.793h5.246
		l3.688,7.234c0.459,0.859,0.809,1.656,1.051,2.281c0.066-0.562,0.164-1.258,0.281-1.957l1.359-7.559h5.01L44.683,53.014z"/>
</g>
</svg>
