<?xml version="1.0" encoding="utf-8"?>
<!-- Generator: Adobe Illustrator 16.2.1, SVG Export Plug-In . SVG Version: 6.00 Build 0)  -->
<!DOCTYPE svg PUBLIC "-//W3C//DTD SVG 1.1//EN" "http://www.w3.org/Graphics/SVG/1.1/DTD/svg11.dtd" [
	<!ENTITY ns_extend "http://ns.adobe.com/Extensibility/1.0/">
	<!ENTITY ns_ai "http://ns.adobe.com/AdobeIllustrator/10.0/">
	<!ENTITY ns_graphs "http://ns.adobe.com/Graphs/1.0/">
	<!ENTITY ns_vars "http://ns.adobe.com/Variables/1.0/">
	<!ENTITY ns_imrep "http://ns.adobe.com/ImageReplacement/1.0/">
	<!ENTITY ns_sfw "http://ns.adobe.com/SaveForWeb/1.0/">
	<!ENTITY ns_custom "http://ns.adobe.com/GenericCustomNamespace/1.0/">
	<!ENTITY ns_adobe_xpath "http://ns.adobe.com/XPath/1.0/">
]>
<svg version="1.1" id="Layer_1" xmlns:x="&ns_extend;" xmlns:i="&ns_ai;" xmlns:graph="&ns_graphs;"
	 xmlns="http://www.w3.org/2000/svg" xmlns:xlink="http://www.w3.org/1999/xlink" x="0px" y="0px" width="100%"
	 height="100%" viewBox="0 0 524.46 171.124" enable-background="new 0 0 524.46 171.124" xml:space="preserve">
<metadata>
	<sfw  xmlns="&ns_sfw;">
		<slices></slices>
		<sliceSourceBounds  height="171.124" width="524.46" bottomLeftOrigin="true" x="158.716" y="-379.202"></sliceSourceBounds>
	</sfw>
</metadata>
<g>
	<g>
		<g>
			<g>
				<linearGradient id="SVGID_1_" gradientUnits="userSpaceOnUse" x1="64.4258" y1="57.7441" x2="112.7158" y2="57.7441">
					<stop  offset="0" style="stop-color:#1F7BBC"/>
					<stop  offset="1" style="stop-color:#24ACE6"/>
				</linearGradient>
				<path fill="url(#SVGID_1_)" d="M81.451,53.837c0.342-0.064,0.674-0.163,1.002-0.262c2.407-0.472,8.878-0.862,16.63,5.917
					c9.843,8.621,8.273,21.894,5.562,29.647c0,0,15.979-17.945,2.971-43.275c-6.766-13.18-15.624-17.503-24.052-19.127
					c-3.923-0.745-11.646-1.008-16.354,4.84c-2.307,3.122-3.341,7.169-2.486,11.27C66.308,50.5,73.799,55.415,81.451,53.837z"/>
				<linearGradient id="SVGID_2_" gradientUnits="userSpaceOnUse" x1="72.0195" y1="63.3311" x2="109.4043" y2="63.3311">
					<stop  offset="0" style="stop-color:#29A2DD"/>
					<stop  offset="1" style="stop-color:#1F7BBC"/>
				</linearGradient>
				<path fill="url(#SVGID_2_)" d="M102.694,49.592C88.57,30.924,73.811,38.211,72.382,43.213
					c-1.187,4.148,0.142,10.606,10.071,10.362c2.407-0.472,8.878-0.862,16.63,5.917c9.843,8.621,8.273,21.894,5.562,29.647
					C104.645,89.14,116.555,67.915,102.694,49.592z"/>
				<linearGradient id="SVGID_3_" gradientUnits="userSpaceOnUse" x1="132.4805" y1="64.2783" x2="106.6353" y2="109.0087">
					<stop  offset="0" style="stop-color:#1F7BBC"/>
					<stop  offset="1" style="stop-color:#24ACE6"/>
				</linearGradient>
				<path fill="url(#SVGID_3_)" d="M117.753,82.137c0.064,0.338,0.163,0.671,0.264,1.002c0.483,2.406,0.897,8.873-5.853,16.653
					c-8.579,9.865-21.858,8.352-29.623,5.679c0,0,18.01,15.904,43.288,2.795c13.15-6.82,17.442-15.689,19.032-24.13
					c0.727-3.92,0.961-11.643-4.907-16.331c-3.13-2.288-7.182-3.313-11.281-2.446C121.027,66.983,116.142,74.491,117.753,82.137z"/>
				<linearGradient id="SVGID_4_" gradientUnits="userSpaceOnUse" x1="131.1279" y1="81.5156" x2="112.2395" y2="95.9252">
					<stop  offset="0" style="stop-color:#29A2DD"/>
					<stop  offset="1" style="stop-color:#1F7BBC"/>
				</linearGradient>
				<path fill="url(#SVGID_4_)" d="M122.08,103.361c18.611-14.192,11.268-28.923,6.259-30.333
					c-4.156-1.176-10.607,0.181-10.322,10.11c0.483,2.406,0.897,8.873-5.853,16.653c-8.579,9.865-21.858,8.352-29.623,5.679
					C82.541,105.471,103.812,117.293,122.08,103.361z"/>
				<g>
					
						<linearGradient id="SVGID_5_" gradientUnits="userSpaceOnUse" x1="-598.0879" y1="471.9834" x2="-549.7905" y2="471.9834" gradientTransform="matrix(-0.983 -0.1838 0.1838 -0.983 -570.767 471.2423)">
						<stop  offset="0" style="stop-color:#1F7BBC"/>
						<stop  offset="1" style="stop-color:#24ACE6"/>
					</linearGradient>
					<path fill="url(#SVGID_5_)" d="M86.445,117.922c-0.344,0-0.693,0.035-1.037,0.07c-2.458,0.023-8.884-0.78-15.255-8.87
						c-8.084-10.279-4.106-23.036-0.023-30.165c0,0-19.004,14.701-10.874,41.994c4.24,14.199,12.144,20.082,20.135,23.227
						c3.717,1.445,11.253,3.123,16.961-1.758c2.836-2.645,4.606-6.43,4.525-10.623C100.708,123.979,94.249,117.77,86.445,117.922z"
						/>
					
						<linearGradient id="SVGID_6_" gradientUnits="userSpaceOnUse" x1="-590.4863" y1="477.5703" x2="-553.1035" y2="477.5703" gradientTransform="matrix(-0.983 -0.1838 0.1838 -0.983 -570.767 471.2423)">
						<stop  offset="0" style="stop-color:#29A2DD"/>
						<stop  offset="1" style="stop-color:#1F7BBC"/>
					</linearGradient>
					<path fill="url(#SVGID_6_)" d="M64.777,118.189c10.448,20.945,26.298,16.496,28.627,11.842
						c1.928-3.86,1.806-10.455-7.996-12.039c-2.458,0.023-8.884-0.78-15.255-8.87c-8.084-10.279-4.106-23.036-0.023-30.165
						C70.13,78.957,54.527,97.631,64.777,118.189z"/>
				</g>
				
					<linearGradient id="SVGID_7_" gradientUnits="userSpaceOnUse" x1="-73.2007" y1="563.1357" x2="-24.8984" y2="563.1357" gradientTransform="matrix(0.1338 -0.991 0.991 0.1338 -493.4832 -43.072)">
					<stop  offset="0" style="stop-color:#1F7BBC"/>
					<stop  offset="1" style="stop-color:#24ACE6"/>
				</linearGradient>
				<path fill="url(#SVGID_7_)" d="M53.199,87.414c-0.017-0.344-0.069-0.688-0.122-1.031c-0.149-2.452,0.328-8.911,8.085-15.684
					c9.858-8.598,22.798-5.265,30.122-1.549c0,0-15.646-18.236-42.491-8.737c-13.96,4.952-19.439,13.146-22.173,21.282
					c-1.255,3.786-2.555,11.399,2.611,16.857c2.788,2.696,6.657,4.274,10.839,3.983C47.866,101.964,53.743,95.203,53.199,87.414z"/>
				
					<linearGradient id="SVGID_8_" gradientUnits="userSpaceOnUse" x1="-65.5947" y1="568.7217" x2="-28.2104" y2="568.7217" gradientTransform="matrix(0.1338 -0.991 0.991 0.1338 -493.4832 -43.072)">
					<stop  offset="0" style="stop-color:#29A2DD"/>
					<stop  offset="1" style="stop-color:#1F7BBC"/>
				</linearGradient>
				<path fill="url(#SVGID_8_)" d="M51.833,65.789C31.442,77.28,36.687,92.891,41.45,94.976c3.962,1.735,10.538,1.275,11.627-8.593
					c-0.149-2.452,0.328-8.911,8.085-15.684c9.858-8.598,22.798-5.265,30.122-1.549C91.284,69.15,71.846,54.507,51.833,65.789z"/>
				<g>
					<linearGradient id="SVGID_9_" gradientUnits="userSpaceOnUse" x1="95.0186" y1="-7.0098" x2="25.3629" y2="27.4495">
						<stop  offset="0" style="stop-color:#83B637"/>
						<stop  offset="1" style="stop-color:#60A838"/>
					</linearGradient>
					<path fill="url(#SVGID_9_)" d="M32.837,23.673c-0.025,0.076-0.053,0.163-0.075,0.239c0.034-0.1,0.067-0.192,0.102-0.297
						C32.854,23.632,32.843,23.656,32.837,23.673z"/>
				</g>
			</g>
			<g>
				<g>
					
						<linearGradient id="SVGID_10_" gradientUnits="userSpaceOnUse" x1="-1151.418" y1="-318.4272" x2="-1098.4005" y2="-318.4272" gradientTransform="matrix(-0.4851 0.8744 -0.8744 -0.4851 -672.9316 920.1415)">
						<stop  offset="0" style="stop-color:#8DB834"/>
						<stop  offset="1" style="stop-color:#5FA838"/>
					</linearGradient>
					<path fill="url(#SVGID_10_)" d="M150.894,141.354c3.63-4.264,6.886-8.945,9.708-14.024c1.053-1.889,2.002-3.799,2.888-5.731
						c0.279-0.612,0.529-1.235,0.8-1.853c0.58-1.341,1.134-2.686,1.64-4.03c0.269-0.711,0.519-1.428,0.76-2.131
						c0.47-1.329,0.877-2.668,1.268-4.008c0.192-0.676,0.401-1.346,0.576-2.021c0.437-1.66,0.81-3.312,1.142-4.979
						c0.072-0.338,0.165-0.688,0.227-1.031c0.373-1.991,0.665-3.995,0.886-5.998c0.07-0.612,0.11-1.229,0.171-1.83
						c0.126-1.414,0.226-2.836,0.289-4.256c-0.009-2.729-0.108-6.119-0.813-9.566c-0.747-2.889-1.952-6.126-3.575-8.602
						c-0.381-0.547-0.766-1.089-1.208-1.602c-0.075-0.087-0.146-0.156-0.213-0.232c-1.247-1.369-2.58-2.785-3.951-4.206
						c-0.365-0.383-0.744-0.762-1.11-1.153c-1.384-1.41-2.806-2.842-4.286-4.27c-0.12-0.11-0.231-0.227-0.35-0.344
						c-1.548-1.485-3.151-2.958-4.779-4.402c-0.422-0.379-0.845-0.758-1.271-1.118c-1.688-1.48-3.397-2.924-5.137-4.298
						C183.162,84.811,150.894,141.354,150.894,141.354z"/>
					<linearGradient id="SVGID_11_" gradientUnits="userSpaceOnUse" x1="154.0396" y1="49.042" x2="154.0396" y2="137.1384">
						<stop  offset="0" style="stop-color:#5FA838"/>
						<stop  offset="1" style="stop-color:#8DB834"/>
					</linearGradient>
					<path fill="url(#SVGID_11_)" d="M144.553,49.667c7.595,12.376,11.147,26.925,10.029,41.475
						c-0.222,2.871-0.489,13.088-0.32,15.458c0.831,11.239-0.986,23.862-3.368,34.753
						C150.894,141.354,183.162,84.811,144.553,49.667z"/>
				</g>
				
					<linearGradient id="SVGID_12_" gradientUnits="userSpaceOnUse" x1="-1082.6943" y1="-341.627" x2="-1153.1481" y2="-306.7729" gradientTransform="matrix(-0.4851 0.8744 -0.8744 -0.4851 -672.9316 920.1415)">
					<stop  offset="0" style="stop-color:#6BAD38"/>
					<stop  offset="0.0061" style="stop-color:#6DAE38"/>
					<stop  offset="0.1193" style="stop-color:#8ABA45"/>
					<stop  offset="0.231" style="stop-color:#A0C352"/>
					<stop  offset="0.3396" style="stop-color:#ADC95A"/>
					<stop  offset="0.4417" style="stop-color:#B2CB5D"/>
					<stop  offset="0.5814" style="stop-color:#AFCA5A"/>
					<stop  offset="0.7164" style="stop-color:#A7C552"/>
					<stop  offset="0.8494" style="stop-color:#99BF45"/>
					<stop  offset="0.9805" style="stop-color:#86B637"/>
					<stop  offset="1" style="stop-color:#83B436"/>
				</linearGradient>
				<path fill="url(#SVGID_12_)" d="M144.553,49.667c37.864,35.613,6.341,91.686,6.341,91.686S183.583,84.921,144.553,49.667z"/>
			</g>
			<g>
				<g>
					
						<linearGradient id="SVGID_13_" gradientUnits="userSpaceOnUse" x1="-1124.5137" y1="-366.8506" x2="-1071.4941" y2="-366.8506" gradientTransform="matrix(0.502 0.8648 -0.8648 0.502 358.1105 1166.1482)">
						<stop  offset="0" style="stop-color:#8DB834"/>
						<stop  offset="1" style="stop-color:#5FA838"/>
					</linearGradient>
					<path fill="url(#SVGID_13_)" d="M167.25,58.52c-1.799-5.302-4.149-10.499-7.063-15.526c-1.082-1.872-2.234-3.667-3.44-5.417
						c-0.382-0.554-0.788-1.089-1.181-1.637c-0.854-1.185-1.724-2.351-2.619-3.474c-0.471-0.595-0.959-1.177-1.44-1.745
						c-0.899-1.084-1.841-2.121-2.789-3.143c-0.481-0.512-0.949-1.036-1.44-1.532c-1.201-1.227-2.431-2.395-3.689-3.533
						c-0.253-0.235-0.506-0.494-0.77-0.724c-1.518-1.34-3.089-2.618-4.694-3.835c-0.49-0.375-0.999-0.726-1.483-1.085
						c-1.15-0.833-2.32-1.646-3.507-2.43c-2.348-1.391-5.309-3.044-8.63-4.207c-2.862-0.838-6.261-1.464-9.218-1.34
						c-0.665,0.045-1.327,0.098-1.995,0.215c-0.113,0.021-0.208,0.044-0.309,0.064c-1.814,0.369-3.713,0.788-5.637,1.235
						c-0.518,0.117-1.035,0.248-1.56,0.361c-1.92,0.467-3.879,0.952-5.863,1.492c-0.156,0.046-0.313,0.082-0.475,0.123
						c-2.067,0.567-4.155,1.19-6.23,1.847c-0.542,0.167-1.082,0.336-1.61,0.516c-2.138,0.692-4.253,1.418-6.324,2.207
						C135.251,1.824,167.25,58.52,167.25,58.52z"/>
					
						<linearGradient id="SVGID_14_" gradientUnits="userSpaceOnUse" x1="183.8052" y1="96.9619" x2="183.8052" y2="185.063" gradientTransform="matrix(0.5127 -0.8585 0.8585 0.5127 -87.8712 116.5711)">
						<stop  offset="0" style="stop-color:#5FA838"/>
						<stop  offset="1" style="stop-color:#8DB834"/>
					</linearGradient>
					<path fill="url(#SVGID_14_)" d="M85.282,16.951c14.52-0.173,28.832,4.235,40.75,12.657c2.352,1.661,10.985,7.13,13.108,8.2
						c10.075,5.049,19.98,13.082,28.109,20.711C167.25,58.52,135.251,1.824,85.282,16.951z"/>
				</g>
				
					<linearGradient id="SVGID_15_" gradientUnits="userSpaceOnUse" x1="-1055.7866" y1="-390.0493" x2="-1126.2418" y2="-355.1945" gradientTransform="matrix(0.502 0.8648 -0.8648 0.502 358.1105 1166.1482)">
					<stop  offset="0" style="stop-color:#6BAD38"/>
					<stop  offset="0.0061" style="stop-color:#6DAE38"/>
					<stop  offset="0.1193" style="stop-color:#8ABA45"/>
					<stop  offset="0.231" style="stop-color:#A0C352"/>
					<stop  offset="0.3396" style="stop-color:#ADC95A"/>
					<stop  offset="0.4417" style="stop-color:#B2CB5D"/>
					<stop  offset="0.5814" style="stop-color:#AFCA5A"/>
					<stop  offset="0.7164" style="stop-color:#A7C552"/>
					<stop  offset="0.8494" style="stop-color:#99BF45"/>
					<stop  offset="0.9805" style="stop-color:#86B637"/>
					<stop  offset="1" style="stop-color:#83B436"/>
				</linearGradient>
				<path fill="url(#SVGID_15_)" d="M85.282,16.951C135.271,2.705,167.25,58.52,167.25,58.52S135.562,1.519,85.282,16.951z"/>
			</g>
			<g>
				<g>
					
						<linearGradient id="SVGID_16_" gradientUnits="userSpaceOnUse" x1="-1011.8926" y1="-270.5557" x2="-958.8758" y2="-270.5557" gradientTransform="matrix(-0.9999 0.0111 -0.0111 -0.9999 -874.2655 -114.6271)">
						<stop  offset="0" style="stop-color:#8DB834"/>
						<stop  offset="1" style="stop-color:#5FA838"/>
					</linearGradient>
					<path fill="url(#SVGID_16_)" d="M70.106,169.621c5.502,1.045,11.181,1.558,16.991,1.498c2.162-0.021,4.292-0.142,6.409-0.328
						c0.671-0.059,1.336-0.152,2.006-0.221c1.452-0.16,2.896-0.346,4.314-0.57c0.75-0.117,1.496-0.256,2.228-0.395
						c1.387-0.248,2.753-0.558,4.109-0.881c0.683-0.168,1.368-0.316,2.042-0.5c1.658-0.442,3.279-0.936,4.892-1.472
						c0.329-0.104,0.679-0.196,1.009-0.313c1.915-0.66,3.799-1.398,5.65-2.197c0.566-0.242,1.123-0.512,1.674-0.758
						c1.292-0.59,2.576-1.207,3.843-1.854c2.365-1.358,5.262-3.121,7.91-5.44c2.14-2.078,4.356-4.728,5.705-7.363
						c0.287-0.602,0.567-1.204,0.794-1.842c0.039-0.109,0.064-0.205,0.097-0.301c0.572-1.76,1.143-3.621,1.7-5.515
						c0.153-0.507,0.294-1.022,0.452-1.536c0.54-1.898,1.082-3.844,1.589-5.837c0.037-0.159,0.084-0.313,0.127-0.473
						c0.524-2.079,1.012-4.202,1.46-6.333c0.121-0.555,0.241-1.108,0.344-1.656c0.45-2.199,0.86-4.4,1.193-6.59
						C135.21,169.684,70.106,169.621,70.106,169.621z"/>
					
						<linearGradient id="SVGID_17_" gradientUnits="userSpaceOnUse" x1="44.5166" y1="147.5508" x2="44.5166" y2="235.6472" gradientTransform="matrix(0.4948 0.869 -0.869 0.4948 258.0757 14.9866)">
						<stop  offset="0" style="stop-color:#5FA838"/>
						<stop  offset="1" style="stop-color:#8DB834"/>
					</linearGradient>
					<path fill="url(#SVGID_17_)" d="M146.645,118.744c-6.998,12.723-17.883,23.01-31.08,29.236
						c-2.604,1.229-11.614,6.051-13.591,7.371c-9.355,6.283-21.225,10.951-31.867,14.27
						C70.106,169.621,135.21,169.684,146.645,118.744z"/>
				</g>
				
					<linearGradient id="SVGID_18_" gradientUnits="userSpaceOnUse" x1="-943.1694" y1="-293.7534" x2="-1013.6221" y2="-258.8999" gradientTransform="matrix(-0.9999 0.0111 -0.0111 -0.9999 -874.2655 -114.6271)">
					<stop  offset="0" style="stop-color:#6BAD38"/>
					<stop  offset="0.0061" style="stop-color:#6DAE38"/>
					<stop  offset="0.1193" style="stop-color:#8ABA45"/>
					<stop  offset="0.231" style="stop-color:#A0C352"/>
					<stop  offset="0.3396" style="stop-color:#ADC95A"/>
					<stop  offset="0.4417" style="stop-color:#B2CB5D"/>
					<stop  offset="0.5814" style="stop-color:#AFCA5A"/>
					<stop  offset="0.7164" style="stop-color:#A7C552"/>
					<stop  offset="0.8494" style="stop-color:#99BF45"/>
					<stop  offset="0.9805" style="stop-color:#86B637"/>
					<stop  offset="1" style="stop-color:#83B436"/>
				</linearGradient>
				<path fill="url(#SVGID_18_)" d="M146.645,118.744c-12.213,50.524-76.538,50.877-76.538,50.877S135.322,170.105,146.645,118.744z
					"/>
			</g>
			<g>
				<g>
					
						<linearGradient id="SVGID_19_" gradientUnits="userSpaceOnUse" x1="-843.9624" y1="-271.2832" x2="-790.947" y2="-271.2832" gradientTransform="matrix(-0.5062 -0.8624 0.8624 -0.5062 -132.0958 -702.8541)">
						<stop  offset="0" style="stop-color:#8DB834"/>
						<stop  offset="1" style="stop-color:#5FA838"/>
					</linearGradient>
					<path fill="url(#SVGID_19_)" d="M4.532,113.57c1.825,5.294,4.2,10.479,7.139,15.492c1.092,1.866,2.253,3.655,3.467,5.4
						c0.385,0.551,0.795,1.084,1.188,1.63c0.858,1.182,1.736,2.343,2.636,3.462c0.476,0.592,0.965,1.173,1.448,1.738
						c0.906,1.08,1.853,2.113,2.807,3.129c0.484,0.51,0.954,1.031,1.447,1.524c1.207,1.22,2.44,2.382,3.707,3.515
						c0.254,0.234,0.508,0.492,0.772,0.721c1.524,1.334,3.101,2.604,4.714,3.812c0.491,0.372,1.001,0.721,1.488,1.078
						c1.154,0.826,2.327,1.636,3.518,2.414c2.354,1.379,5.323,3.017,8.65,4.162c2.867,0.826,6.269,1.436,9.225,1.297
						c0.666-0.05,1.327-0.104,1.993-0.226c0.114-0.021,0.211-0.045,0.31-0.065c1.812-0.377,3.709-0.806,5.63-1.264
						c0.516-0.118,1.034-0.252,1.558-0.369c1.917-0.475,3.875-0.97,5.857-1.52c0.155-0.047,0.312-0.084,0.473-0.126
						c2.065-0.576,4.15-1.209,6.221-1.876c0.542-0.17,1.083-0.342,1.609-0.525c2.133-0.701,4.246-1.438,6.313-2.236
						C36.808,170.11,4.532,113.57,4.532,113.57z"/>
					
						<linearGradient id="SVGID_20_" gradientUnits="userSpaceOnUse" x1="-36.5386" y1="295.6523" x2="-36.5386" y2="383.7544" gradientTransform="matrix(-0.5085 0.861 -0.861 -0.5085 318.3946 345.0234)">
						<stop  offset="0" style="stop-color:#5FA838"/>
						<stop  offset="1" style="stop-color:#8DB834"/>
					</linearGradient>
					<path fill="url(#SVGID_20_)" d="M86.702,154.738c-14.519,0.245-28.854-4.096-40.812-12.457
						c-2.359-1.65-11.02-7.078-13.146-8.137c-10.101-5.001-20.045-12.984-28.211-20.574C4.532,113.57,36.808,170.11,86.702,154.738z
						"/>
				</g>
				
					<linearGradient id="SVGID_21_" gradientUnits="userSpaceOnUse" x1="-775.2412" y1="-294.4805" x2="-845.692" y2="-259.6279" gradientTransform="matrix(-0.5062 -0.8624 0.8624 -0.5062 -132.0958 -702.8541)">
					<stop  offset="0" style="stop-color:#6BAD38"/>
					<stop  offset="0.0061" style="stop-color:#6DAE38"/>
					<stop  offset="0.1193" style="stop-color:#8ABA45"/>
					<stop  offset="0.231" style="stop-color:#A0C352"/>
					<stop  offset="0.3396" style="stop-color:#ADC95A"/>
					<stop  offset="0.4417" style="stop-color:#B2CB5D"/>
					<stop  offset="0.5814" style="stop-color:#AFCA5A"/>
					<stop  offset="0.7164" style="stop-color:#A7C552"/>
					<stop  offset="0.8494" style="stop-color:#99BF45"/>
					<stop  offset="0.9805" style="stop-color:#86B637"/>
					<stop  offset="1" style="stop-color:#83B436"/>
				</linearGradient>
				<path fill="url(#SVGID_21_)" d="M86.702,154.738c-49.921,14.491-82.17-41.168-82.17-41.168S36.498,170.416,86.702,154.738z"/>
			</g>
			<g>
				<g>
					
						<linearGradient id="SVGID_22_" gradientUnits="userSpaceOnUse" x1="-816.9087" y1="-319.2158" x2="-763.8902" y2="-319.2158" gradientTransform="matrix(0.4894 -0.872 0.872 0.4894 685.2358 -452.9874)">
						<stop  offset="0" style="stop-color:#8DB834"/>
						<stop  offset="1" style="stop-color:#5FA838"/>
					</linearGradient>
					<path fill="url(#SVGID_22_)" d="M20.61,29.654c-3.65,4.245-6.931,8.91-9.777,13.974c-1.062,1.885-2.021,3.79-2.916,5.719
						c-0.282,0.61-0.536,1.233-0.81,1.849c-0.586,1.337-1.146,2.681-1.66,4.022c-0.272,0.708-0.525,1.424-0.77,2.127
						c-0.476,1.328-0.891,2.662-1.287,4c-0.195,0.675-0.41,1.344-0.588,2.019c-0.443,1.659-0.826,3.309-1.165,4.973
						c-0.074,0.337-0.168,0.688-0.232,1.03c-0.383,1.99-0.684,3.991-0.915,5.994c-0.074,0.612-0.117,1.228-0.181,1.828
						C0.177,78.604,0.07,80.024,0,81.444c-0.005,2.729,0.077,6.12,0.766,9.568c0.733,2.894,1.923,6.137,3.533,8.62
						c0.378,0.551,0.759,1.094,1.199,1.609c0.075,0.088,0.146,0.157,0.213,0.234c1.239,1.375,2.565,2.797,3.93,4.223
						c0.362,0.387,0.739,0.767,1.104,1.16c1.377,1.416,2.791,2.855,4.266,4.289c0.119,0.113,0.229,0.229,0.348,0.348
						c1.54,1.491,3.135,2.973,4.758,4.425c0.419,0.383,0.84,0.763,1.264,1.124c1.682,1.488,3.383,2.941,5.115,4.325
						C-11.939,86.036,20.61,29.654,20.61,29.654z"/>
					
						<linearGradient id="SVGID_23_" gradientUnits="userSpaceOnUse" x1="-7.2495" y1="341.9727" x2="-7.2495" y2="430.0663" gradientTransform="matrix(-1 -0.005 0.005 -1 8.0453 463.8837)">
						<stop  offset="0" style="stop-color:#5FA838"/>
						<stop  offset="1" style="stop-color:#8DB834"/>
					</linearGradient>
					<path fill="url(#SVGID_23_)" d="M26.495,121.37c-7.533-12.414-11.014-26.979-9.823-41.525
						c0.235-2.87,0.556-13.085,0.397-15.456c-0.775-11.243,1.105-23.856,3.541-34.735C20.61,29.654-11.939,86.036,26.495,121.37z"/>
				</g>
				
					<linearGradient id="SVGID_24_" gradientUnits="userSpaceOnUse" x1="-748.1846" y1="-342.4155" x2="-818.6379" y2="-307.5616" gradientTransform="matrix(0.4894 -0.872 0.872 0.4894 685.2358 -452.9874)">
					<stop  offset="0" style="stop-color:#6BAD38"/>
					<stop  offset="0.0061" style="stop-color:#6DAE38"/>
					<stop  offset="0.1193" style="stop-color:#8ABA45"/>
					<stop  offset="0.231" style="stop-color:#A0C352"/>
					<stop  offset="0.3396" style="stop-color:#ADC95A"/>
					<stop  offset="0.4417" style="stop-color:#B2CB5D"/>
					<stop  offset="0.5814" style="stop-color:#AFCA5A"/>
					<stop  offset="0.7164" style="stop-color:#A7C552"/>
					<stop  offset="0.8494" style="stop-color:#99BF45"/>
					<stop  offset="0.9805" style="stop-color:#86B637"/>
					<stop  offset="1" style="stop-color:#83B436"/>
				</linearGradient>
				<path fill="url(#SVGID_24_)" d="M26.495,121.37c-37.688-35.8-5.885-91.716-5.885-91.716S-12.359,85.923,26.495,121.37z"/>
			</g>
			<g>
				<g>
					
						<linearGradient id="SVGID_25_" gradientUnits="userSpaceOnUse" x1="-957.6885" y1="-367.668" x2="-904.6683" y2="-367.668" gradientTransform="matrix(0.9999 -0.0011 0.0011 0.9999 989.9679 392.4921)">
						<stop  offset="0" style="stop-color:#8DB834"/>
						<stop  offset="1" style="stop-color:#5FA838"/>
					</linearGradient>
					<path fill="url(#SVGID_25_)" d="M102.64,1.667C97.149,0.568,91.475-0.002,85.664,0c-2.162-0.001-4.293,0.098-6.413,0.264
						c-0.67,0.052-1.336,0.137-2.007,0.2c-1.454,0.145-2.897,0.315-4.319,0.526c-0.751,0.113-1.5,0.242-2.231,0.374
						c-1.39,0.235-2.758,0.53-4.118,0.841c-0.685,0.16-1.373,0.301-2.047,0.477c-1.663,0.426-3.289,0.904-4.907,1.423
						c-0.33,0.101-0.68,0.189-1.012,0.303c-1.92,0.642-3.812,1.362-5.671,2.141c-0.569,0.237-1.128,0.501-1.682,0.741
						c-1.298,0.576-2.587,1.182-3.861,1.816c-2.379,1.335-5.294,3.067-7.964,5.361c-2.161,2.056-4.405,4.683-5.779,7.305
						c-0.293,0.598-0.579,1.198-0.813,1.834c-0.039,0.109-0.066,0.204-0.099,0.299c-0.59,1.755-1.18,3.608-1.755,5.498
						c-0.158,0.505-0.305,1.021-0.469,1.532c-0.558,1.894-1.119,3.832-1.646,5.82c-0.038,0.159-0.087,0.312-0.131,0.472
						c-0.546,2.075-1.053,4.192-1.524,6.316c-0.127,0.554-0.251,1.108-0.36,1.653c-0.473,2.196-0.903,4.391-1.259,6.58
						C37.541,0.952,102.64,1.667,102.64,1.667z"/>
					
						<linearGradient id="SVGID_26_" gradientUnits="userSpaceOnUse" x1="103.4751" y1="242.3926" x2="103.4751" y2="330.49" gradientTransform="matrix(-0.4861 -0.8739 0.8739 -0.4861 -141.0904 252.046)">
						<stop  offset="0" style="stop-color:#5FA838"/>
						<stop  offset="1" style="stop-color:#8DB834"/>
					</linearGradient>
					<path fill="url(#SVGID_26_)" d="M25.596,51.776c7.123-12.653,18.112-22.831,31.371-28.925
						c2.616-1.203,11.675-5.935,13.663-7.234c9.42-6.189,21.334-10.737,32.01-13.95C102.64,1.667,37.541,0.952,25.596,51.776z"/>
				</g>
				
					<linearGradient id="SVGID_27_" gradientUnits="userSpaceOnUse" x1="-888.96" y1="-390.8672" x2="-959.4173" y2="-356.0114" gradientTransform="matrix(0.9999 -0.0011 0.0011 0.9999 989.9679 392.4921)">
					<stop  offset="0" style="stop-color:#6BAD38"/>
					<stop  offset="0.0061" style="stop-color:#6DAE38"/>
					<stop  offset="0.1193" style="stop-color:#8ABA45"/>
					<stop  offset="0.231" style="stop-color:#A0C352"/>
					<stop  offset="0.3396" style="stop-color:#ADC95A"/>
					<stop  offset="0.4417" style="stop-color:#B2CB5D"/>
					<stop  offset="0.5814" style="stop-color:#AFCA5A"/>
					<stop  offset="0.7164" style="stop-color:#A7C552"/>
					<stop  offset="0.8494" style="stop-color:#99BF45"/>
					<stop  offset="0.9805" style="stop-color:#86B637"/>
					<stop  offset="1" style="stop-color:#83B436"/>
				</linearGradient>
				<path fill="url(#SVGID_27_)" d="M25.596,51.776C38.313,1.376,102.64,1.667,102.64,1.667S37.433,0.53,25.596,51.776z"/>
			</g>
		</g>
	</g>
	<g>
		<g>
			<path fill="#5C5D60" d="M235.74,123.704c-2.369-2.061-5.775-3.341-10.217-3.851l-15.142-1.806
				c-0.637-0.129-1.08-0.304-1.335-0.527c-0.254-0.221-0.38-0.613-0.38-1.183c0-0.513,0.254-1.018,0.759-1.526
				c0.509-0.508,1.053-0.952,1.619-1.331c0.509,0.06,1.05,0.095,1.623,0.095c0.568,0,1.141,0,1.71,0c3.682,0,6.75-0.494,9.19-1.481
				c2.446-0.973,4.396-2.311,5.86-3.996c1.46-1.676,2.491-3.646,3.092-5.9c0.598-2.249,0.905-4.643,0.905-7.186
				c0-1.652-0.128-3.232-0.382-4.758c-0.255-1.527-0.665-2.952-1.238-4.284l6.478-1.81v-6.472h-15.34
				c-1.21-0.384-2.527-0.688-3.956-0.913s-2.968-0.344-4.62-0.344c-3.685,0-6.753,0.494-9.197,1.476
				c-2.449,0.99-4.404,2.318-5.866,4c-1.457,1.685-2.488,3.654-3.092,5.902c-0.605,2.255-0.904,4.648-0.904,7.192
				c0,3.291,0.516,6.327,1.546,9.086c1.034,2.763,2.904,4.968,5.616,6.62c-0.962,0.893-1.76,1.904-2.393,3.052
				c-0.64,1.138-0.96,2.403-0.96,3.8c0,1.271,0.157,2.344,0.479,3.236c0.319,0.889,0.733,1.676,1.246,2.379v0.09
				c-2.237,1.147-4.139,2.638-5.703,4.474c-1.567,1.846-2.349,4.19-2.349,7.047c0,5.451,1.923,9.407,5.765,11.856
				c3.844,2.435,9.134,3.656,15.868,3.656c3.3,0,6.461-0.315,9.479-0.953c3.018-0.629,5.671-1.632,7.954-2.987
				c2.288-1.371,4.1-3.111,5.435-5.244c1.335-2.129,2.003-4.672,2.003-7.654C239.294,129.016,238.107,125.764,235.74,123.704z
				 M204.947,91.396c0.194-1.137,0.617-2.135,1.287-2.987c0.669-0.853,1.654-1.556,2.956-2.094c1.304-0.534,3.034-0.808,5.198-0.808
				c2.228,0,3.974,0.274,5.245,0.808c1.27,0.538,2.257,1.241,2.955,2.094s1.144,1.851,1.337,2.987
				c0.189,1.137,0.284,2.334,0.284,3.606c0,1.201-0.095,2.394-0.284,3.561c-0.193,1.172-0.639,2.184-1.337,3.042
				c-0.698,0.853-1.686,1.55-2.955,2.085c-1.271,0.538-3.018,0.803-5.245,0.803c-2.164,0-3.895-0.265-5.198-0.803
				c-1.302-0.535-2.287-1.232-2.956-2.085c-0.67-0.858-1.093-1.87-1.287-3.042c-0.19-1.167-0.285-2.359-0.285-3.561
				C204.662,93.729,204.757,92.532,204.947,91.396z M228.275,137.225c-0.823,1.013-1.934,1.805-3.326,2.384
				c-1.397,0.562-3.002,0.978-4.812,1.237c-1.809,0.243-3.699,0.379-5.665,0.379c-4,0-6.985-0.435-8.951-1.292
				c-1.97-0.853-2.955-2.588-2.955-5.188c0-1.969,0.876-3.57,2.622-4.812c1.743-1.242,3.889-2.264,6.427-3.092l12.378,1.432
				c2.029,0.253,3.46,0.758,4.283,1.521c0.828,0.759,1.24,1.966,1.24,3.621C229.516,134.935,229.104,136.202,228.275,137.225z"/>
			<path fill="#5C5D60" d="M266.396,76.432c-4.759,0-9.207,1.307-13.326,3.91l-0.948-2.669h-6.546v47.632h9.773V87.79
				c1.395-0.639,2.951-1.172,4.666-1.616c1.716-0.449,3.84-0.667,6.381-0.667c0.95,0,2.062,0.124,3.334,0.379
				c1.271,0.259,2.508,0.603,3.715,1.051v-9.737c-1.082-0.259-2.258-0.453-3.525-0.573
				C268.649,76.497,267.472,76.432,266.396,76.432z"/>
			<path fill="#5C5D60" d="M313.083,83.956c-1.336-2.283-3.241-4.112-5.721-5.479c-2.479-1.362-5.821-2.045-10.011-2.045
				c-4,0-7.37,0.608-10.094,1.812c-2.733,1.211-4.927,2.906-6.577,5.099c-1.651,2.189-2.832,4.827-3.53,7.91
				c-0.694,3.08-1.048,6.498-1.048,10.247c0,3.74,0.354,7.157,1.048,10.24c0.698,3.083,1.879,5.717,3.53,7.904
				c1.65,2.2,3.844,3.9,6.577,5.108c2.733,1.206,6.094,1.806,10.1,1.806c2.289,0,4.833-0.195,7.626-0.569
				c2.804-0.379,5.726-1.271,8.777-2.679v-9.256c-2.921,1.276-5.61,2.159-8.079,2.669c-2.474,0.508-5.228,0.762-8.265,0.762
				c-1.905,0-3.516-0.284-4.854-0.853c-1.326-0.572-2.414-1.376-3.271-2.393c-0.857-1.014-1.525-2.225-2-3.621
				c-0.473-1.403-0.807-2.93-0.996-4.59h30.023v-4.559c0-3.366-0.203-6.553-0.617-9.57S314.415,86.234,313.083,83.956z
				 M286.155,97.516c0.195-1.701,0.494-3.278,0.902-4.729c0.42-1.446,1.049-2.723,1.91-3.83c0.858-1.103,1.971-1.955,3.337-2.548
				c1.366-0.599,3.067-0.902,5.098-0.902c1.965,0,3.525,0.334,4.668,0.991c1.148,0.668,2.035,1.541,2.669,2.648
				s1.047,2.379,1.242,3.835c0.189,1.445,0.284,2.963,0.284,4.534H286.155z"/>
			<path fill="#5C5D60" d="M344.894,76.432c-2.285,0-4.574,0.329-6.883,1.003c-2.314,0.664-4.449,1.641-6.41,2.907l-0.953-2.669
				h-6.553v47.632h9.781V87.79c1.262-0.639,2.818-1.172,4.654-1.616c1.834-0.449,3.959-0.667,6.363-0.667
				c2.213,0,4.049,0.463,5.506,1.381c1.455,0.922,2.184,2.493,2.184,4.712v33.705h9.775V91.77c0-4.833-1.436-8.587-4.318-11.288
				C355.157,77.784,350.778,76.432,344.894,76.432z"/>
			<path fill="#5C5D60" d="M380.208,115.306V53.809h-9.629v61.217c0,4.249,0.957,7.242,2.883,8.962
				c1.93,1.711,4.787,2.569,8.578,2.569h1.801V117.5c-1.363,0-2.311-0.14-2.844-0.429
				C380.472,116.787,380.208,116.193,380.208,115.306z"/>
			<path fill="#5C5D60" d="M424.212,81.01c-1.402-1.46-3.297-2.593-5.676-3.387c-2.383-0.792-5.416-1.192-9.105-1.192
				c-1.143,0-2.443,0.065-3.904,0.194c-1.463,0.12-2.959,0.314-4.486,0.573c-1.525,0.254-2.986,0.555-4.383,0.899
				c-1.402,0.359-2.578,0.754-3.527,1.202v9.063c0.889-0.314,1.967-0.653,3.232-1.003c1.271-0.343,2.633-0.663,4.09-0.947
				c1.463-0.279,2.969-0.508,4.52-0.667c1.557-0.161,3.031-0.239,4.428-0.239c3.428,0,5.746,0.627,6.943,1.864
				c1.205,1.236,1.811,3.151,1.811,5.76v0.948l-10.748,0.853c-3.49,0.264-6.375,0.862-8.658,1.811
				c-2.281,0.958-4.092,2.108-5.416,3.48c-1.338,1.366-2.256,2.907-2.764,4.623c-0.508,1.711-0.758,3.521-0.758,5.423
				c0,2.095,0.279,4.113,0.852,6.05c0.574,1.94,1.527,3.67,2.859,5.19c1.336,1.527,3.117,2.748,5.336,3.666
				c2.229,0.923,4.988,1.383,8.295,1.383c2.1,0,4.354-0.315,6.768-0.948c2.414-0.639,4.602-1.561,6.572-2.768l0.859,2.473h6.578
				V93.012c0-2.474-0.27-4.733-0.812-6.768C426.577,84.216,425.608,82.471,424.212,81.01z M418.153,114.537
				c-1.268,0.753-2.889,1.442-4.854,2.045c-1.975,0.608-3.969,0.902-6.004,0.902c-1.715,0-3.092-0.224-4.141-0.663
				c-1.047-0.453-1.824-1.018-2.334-1.715c-0.51-0.703-0.844-1.481-0.998-2.339c-0.158-0.854-0.238-1.696-0.238-2.52
				c0-1.657,0.533-3.213,1.617-4.669c1.076-1.461,3.111-2.319,6.094-2.572l10.857-0.948V114.537z"/>
			<path fill="#5C5D60" d="M459.683,76.432c-2.279,0-4.578,0.329-6.883,1.003c-2.312,0.664-4.449,1.641-6.402,2.907l-0.959-2.669
				h-6.553v47.632h9.775V87.79c1.266-0.639,2.824-1.172,4.658-1.616c1.836-0.449,3.955-0.667,6.363-0.667
				c2.215,0,4.051,0.463,5.506,1.381c1.457,0.922,2.189,2.493,2.189,4.712v33.705h9.771V91.77c0-4.833-1.436-8.587-4.318-11.288
				C469.954,77.784,465.567,76.432,459.683,76.432z"/>
			<path fill="#5C5D60" d="M514.829,53.809v25.202c-1.9-0.882-3.705-1.542-5.381-1.961c-1.682-0.409-3.48-0.618-5.377-0.618
				c-4.002,0-7.332,0.608-10,1.812c-2.668,1.211-4.789,2.906-6.379,5.099c-1.592,2.189-2.699,4.827-3.332,7.91
				c-0.639,3.08-0.947,6.498-0.947,10.247c0,3.74,0.309,7.157,0.947,10.24c0.633,3.083,1.74,5.717,3.332,7.904
				c1.596,2.2,3.715,3.9,6.379,5.108c2.668,1.206,5.998,1.806,10.006,1.806c2.289,0,4.494-0.35,6.617-1.043
				c2.131-0.698,4.273-1.655,6.434-2.863l0.953,2.663h6.379V53.809H514.829z M514.829,115.2c-1.396,0.694-2.953,1.252-4.664,1.666
				c-1.715,0.414-3.744,0.618-6.094,0.618c-2.344,0-4.221-0.429-5.617-1.291c-1.387-0.848-2.469-2.01-3.232-3.466
				c-0.758-1.451-1.266-3.154-1.523-5.094c-0.252-1.935-0.375-3.979-0.375-6.135c0-2.163,0.123-4.204,0.375-6.139
				c0.258-1.94,0.766-3.641,1.523-5.097c0.764-1.456,1.846-2.613,3.232-3.472c1.396-0.852,3.273-1.285,5.617-1.285
				c1.525,0,2.873,0.094,4.051,0.289c1.172,0.19,2.234,0.414,3.186,0.663c1.521,0.385,2.697,0.798,3.521,1.237V115.2z"/>
		</g>
		<polygon fill="#5C5D60" points="211.53,69.948 224.579,35.805 217.061,35.805 209.207,59.834 201.223,35.805 193.773,35.805 
			206.812,69.948 		"/>
		<path fill="#5C5D60" d="M250.019,61.21c-2.034,0.893-3.917,1.506-5.642,1.871c-1.725,0.354-3.649,0.529-5.776,0.529
			c-1.324,0-2.452-0.205-3.385-0.599c-0.927-0.399-1.69-0.958-2.288-1.666c-0.599-0.714-1.062-1.562-1.392-2.539
			c-0.334-0.973-0.563-2.04-0.698-3.198h20.977v-3.192c0-2.349-0.146-4.578-0.435-6.683c-0.29-2.104-0.897-3.959-1.837-5.55
			c-0.932-1.597-2.258-2.874-3.993-3.831c-1.728-0.948-4.057-1.427-6.991-1.427c-2.797,0-5.147,0.429-7.058,1.272
			c-1.903,0.842-3.437,2.024-4.588,3.556c-1.157,1.531-1.979,3.382-2.467,5.526c-0.484,2.155-0.729,4.543-0.729,7.162
			c0,2.623,0.244,5.008,0.729,7.153c0.488,2.154,1.31,4,2.468,5.53c1.15,1.526,2.684,2.718,4.594,3.566
			c1.908,0.833,4.262,1.257,7.059,1.257c1.598,0,3.373-0.134,5.326-0.394c1.955-0.269,4-0.897,6.126-1.875V61.21z M231.371,46.358
			c0.289-1.012,0.73-1.91,1.332-2.672c0.599-0.773,1.382-1.367,2.331-1.786c0.95-0.419,2.141-0.629,3.559-0.629
			c1.375,0,2.464,0.225,3.266,0.693c0.794,0.464,1.416,1.083,1.864,1.851c0.444,0.773,0.729,1.656,0.865,2.673
			c0.135,1.017,0.199,2.069,0.199,3.171H230.74C230.868,48.473,231.082,47.371,231.371,46.358z"/>
		<polygon fill="#5C5D60" points="268.458,49.759 283.028,35.775 273.185,35.775 261.542,48.293 261.542,19.126 254.808,19.126 
			254.808,69.075 261.542,69.075 261.542,56.432 263.935,54.108 275.046,69.075 284.355,69.075 		"/>
		<path fill="#5C5D60" d="M286.999,51.709c0.867,0.818,2.074,1.501,3.635,2.054c1.551,0.559,3.551,0.943,6,1.163
			c1.281,0.139,2.323,0.314,3.121,0.533c0.808,0.22,1.412,0.509,1.836,0.873c0.425,0.35,0.699,0.764,0.84,1.237
			c0.125,0.464,0.2,0.968,0.2,1.501c0,0.579-0.116,1.137-0.341,1.666c-0.225,0.539-0.609,1.012-1.133,1.436
			c-0.534,0.424-1.247,0.768-2.141,1.033c-0.887,0.269-1.999,0.404-3.34,0.404c-2.135,0-4.105-0.21-5.906-0.628
			c-1.805-0.424-3.371-0.878-4.707-1.372v6.473c0.623,0.265,1.366,0.509,2.234,0.733c0.863,0.22,1.785,0.414,2.763,0.569
			c0.978,0.154,1.945,0.29,2.903,0.394c0.946,0.114,1.829,0.169,2.632,0.169c2.573,0,4.739-0.324,6.495-0.962
			c1.761-0.644,3.172-1.476,4.239-2.499c1.062-1.022,1.815-2.189,2.264-3.501c0.44-1.312,0.663-2.638,0.663-3.975
			c0-1.461-0.163-2.773-0.498-3.931c-0.334-1.157-0.942-2.159-1.83-3.002c-0.878-0.838-2.096-1.536-3.621-2.065
			c-1.532-0.528-3.512-0.912-5.95-1.132c-1.243-0.135-2.26-0.284-3.058-0.458c-0.799-0.184-1.416-0.399-1.861-0.668
			c-0.443-0.264-0.742-0.583-0.902-0.962c-0.148-0.374-0.229-0.798-0.229-1.292c0-0.614,0.08-1.172,0.229-1.681
			c0.16-0.514,0.47-0.953,0.934-1.327c0.469-0.375,1.097-0.673,1.899-0.893c0.793-0.22,1.835-0.33,3.122-0.33
			c1.996,0,3.791,0.19,5.383,0.564c1.602,0.379,3.217,0.833,4.863,1.361v-6.33c-1.736-0.753-3.481-1.271-5.232-1.536
			c-1.752-0.264-3.408-0.404-4.954-0.404c-2.393,0-4.418,0.319-6.063,0.963c-1.637,0.643-2.953,1.466-3.955,2.458
			c-0.992,0.998-1.711,2.131-2.125,3.397c-0.424,1.257-0.633,2.504-0.633,3.746s0.154,2.388,0.464,3.426
			C285.553,49.959,286.142,50.887,286.999,51.709z"/>
		<path fill="#5C5D60" d="M328.315,69.948c0.318,0,0.877-0.005,1.695-0.03c0.822-0.025,1.654-0.145,2.498-0.364v-6.204
			c-0.359,0.084-0.904,0.149-1.631,0.194c-0.729,0.045-1.406,0.065-2.031,0.065c-1.465,0-2.627-0.24-3.494-0.729
			c-0.863-0.489-1.297-1.441-1.297-2.862V41.661h9.85v-5.856h-9.85V25.566l-6.729,1.859v8.379l-6.189,1.735v4.121h6.189v18.971
			c0,1.642,0.324,3.047,0.967,4.225c0.645,1.182,1.477,2.145,2.494,2.897c1.023,0.753,2.189,1.312,3.506,1.661
			C325.601,69.773,326.942,69.948,328.315,69.948z"/>
		<path fill="#5C5D60" d="M350.179,35.82v26.079c0,2.978,0.67,5.062,2.016,6.254c1.346,1.203,3.342,1.796,5.994,1.796h1.256v-6.313
			c-0.955,0-1.619-0.105-1.982-0.305c-0.369-0.199-0.555-0.613-0.555-1.227V35.82H350.179z"/>
		<path fill="#5C5D60" d="M353.642,29.37c1.277,0,2.367-0.454,3.27-1.361c0.908-0.908,1.363-1.995,1.363-3.271
			c0-1.282-0.455-2.375-1.363-3.277c-0.902-0.908-1.992-1.356-3.27-1.356s-2.375,0.449-3.281,1.356
			c-0.898,0.903-1.348,1.995-1.348,3.277c0,1.275,0.449,2.363,1.348,3.271C351.267,28.917,352.364,29.37,353.642,29.37z"/>
	</g>
</g>
</svg>
